<svg width="193" height="40" viewBox="0 0 193 40" fill="none" xmlns="http://www.w3.org/2000/svg">
<path fill-rule="evenodd" clip-rule="evenodd" d="M138.806 16.9854C138.775 16.9854 138.743 16.9854 138.712 16.9854C138.712 18.2872 138.726 19.5894 138.704 20.8908C138.696 21.3596 138.858 21.656 139.24 21.8998C140.794 22.8948 142.49 23.3795 144.296 23.5321C148.043 23.8479 151.461 21.9319 152.87 18.1247C153.886 15.3792 153.756 12.6092 152.933 9.86922C151.526 5.18628 146.222 3.20365 142.249 5.86869C140.05 7.34328 139.013 9.58429 138.826 12.2291C138.715 13.8067 138.806 15.3994 138.806 16.9854ZM114.389 14.9057C114.38 12.2604 113.778 10.2354 112.533 8.42158C109.345 3.77589 102.923 3.65225 99.5815 8.17469C96.9152 11.7833 96.9506 16.9144 99.6143 20.6233C102.641 24.8386 107.737 24.6639 110.81 22.2675C113.272 20.3463 114.303 17.6297 114.389 14.9057ZM133.684 39C133.624 38.7682 133.511 38.5359 133.511 38.3041C133.502 29.6797 133.504 21.0553 133.504 12.4308C133.504 10.493 133.505 8.55553 133.503 6.61768C133.503 6.01651 133.408 5.91823 132.832 5.82787C127.212 4.94811 124.128 9.67266 124.147 13.7675C124.168 18.2464 124.152 22.7252 124.152 27.2045C124.152 27.9328 124.151 27.9328 123.429 27.9332C122.101 27.9332 120.773 27.919 119.446 27.9412C118.999 27.9487 118.864 27.7759 118.867 27.3265C118.882 25.0237 118.874 22.7205 118.874 20.4176V19.9262L118.773 19.9147C118.589 20.2892 118.414 20.6681 118.22 21.037C116.123 25.0273 112.994 27.6685 108.658 28.4417C103.248 29.4062 98.6408 27.8187 95.1511 23.2487C94.9229 22.9499 94.7735 22.9499 94.4851 23.1588C92.8075 24.3734 91.1345 25.5963 89.423 26.7575C87.5378 28.0363 85.4231 28.5935 83.19 28.6945C80.7192 28.8063 78.3234 28.4738 76.0552 27.3788C73.8667 26.3223 72.0908 24.7768 70.8262 22.6269C70.6243 22.2834 70.4707 22.2279 70.1678 22.5172C68.1309 24.4645 65.8163 25.993 63.3732 27.3194C61.5192 28.3264 59.5132 28.6521 57.4496 28.7044C54.6572 28.775 51.9406 28.412 49.3794 27.1732C48.1926 26.5985 47.1456 25.8139 46.2056 24.8664C45.9397 24.5985 45.9301 24.3916 46.1862 24.1095C47.0652 23.1389 47.9381 22.1621 48.7904 21.1666C49.0521 20.8607 49.216 20.8912 49.4869 21.1531C51.9284 23.5091 54.8553 24.2807 58.1073 23.9822C59.12 23.8891 60.0859 23.6414 61.0083 23.1901C63.1187 22.1581 62.8844 19.3326 61.3028 18.3268C60.0573 17.535 58.6689 17.1819 57.2911 16.7833C55.649 16.3081 53.9908 15.8865 52.3696 15.344C51.0498 14.9029 49.8885 14.1258 48.915 13.0827C46.0841 10.0499 46.4777 5.06739 49.7456 2.51252C51.8335 0.88021 54.219 0.202556 56.797 0.0991248C59.5597 -0.011836 62.2123 0.420119 64.6694 1.78573C65.4315 2.20897 66.1196 2.77645 66.8427 3.27577C67.1647 3.49809 67.1376 3.71803 66.9048 4.01525C66.1043 5.03688 65.3179 6.0704 64.5448 7.11383C64.3521 7.37379 64.2259 7.35913 63.9992 7.16416C61.3943 4.91879 58.3881 4.38142 55.1411 4.98972C54.5829 5.09434 54.0282 5.33885 53.526 5.6222C52.6489 6.11756 52.2248 6.95175 52.2366 7.9813C52.2488 9.00967 52.7445 9.76024 53.6277 10.2132C55.1415 10.9895 56.7764 11.3826 58.3892 11.8558C60.0276 12.3361 61.6793 12.8069 63.2582 13.4572C65.329 14.3104 66.8591 15.8108 67.5678 18.0871C67.5811 18.1307 67.6147 18.1671 67.6387 18.2067C68.534 17.6824 68.8686 16.9469 68.7634 15.8825C68.1241 9.40398 71.7913 1.82813 79.5155 0.384849C82.5408 -0.180259 85.4631 -0.0280839 88.2682 1.36566C89.7568 2.10514 91.0545 3.11845 92.1983 4.35725C92.476 4.65882 92.4303 4.82368 92.1663 5.08206C91.2214 6.007 90.2906 6.94699 89.3674 7.89531C89.1117 8.15805 88.9471 8.15963 88.7059 7.86361C87.204 6.01809 85.2692 5.13397 82.9595 4.94534C78.2213 4.55856 74.9164 8.04907 74.2092 12.3892C73.6826 15.6233 74.2942 18.5432 76.3413 21.0755C78.2056 23.3819 80.662 24.0972 83.4518 23.8083C85.1816 23.6292 86.6972 22.8766 88.0872 21.8173C89.4283 20.7945 90.7634 19.7614 92.1286 18.7734C92.6124 18.4227 92.7397 18.0676 92.6189 17.4605C92.0085 14.3833 92.1587 11.3513 93.4693 8.48419C95.5596 3.91023 98.9167 0.974526 103.832 0.246148C110.873 -0.79728 116.441 3.18423 118.674 8.85354C118.702 8.92328 118.739 8.98867 118.828 9.17215C118.85 8.92764 118.873 8.79885 118.873 8.67005C118.865 6.28796 118.865 3.90587 118.837 1.52378C118.833 1.10253 118.919 0.940445 119.359 0.94956C120.717 0.977697 122.077 0.968978 123.436 0.953523C123.771 0.94956 123.882 1.05458 123.887 1.41322C123.897 2.333 123.949 3.25239 123.989 4.17178C123.998 4.35923 124.028 4.54588 124.057 4.81496C124.178 4.6715 124.255 4.58709 124.324 4.49674C126.354 1.8531 129.026 0.581804 132.247 0.540987C134.17 0.516813 136.093 0.573482 138.016 0.570312C138.402 0.569916 138.51 0.709013 138.516 1.09341C138.53 2.02628 138.586 2.95835 138.63 3.99226C138.777 3.86704 138.869 3.80442 138.941 3.72318C141.294 1.07399 144.223 -0.0847531 147.665 0.00480813C150.869 0.0880287 153.578 1.28205 155.712 3.785C157.35 5.70661 158.157 8.0459 158.637 10.5116C159.377 14.3164 159.014 18.0042 157.279 21.4726C155.573 24.8814 152.755 26.8474 149.262 27.8255C145.921 28.7615 142.648 28.4801 139.47 27.0432C139.264 26.9501 139.056 26.8621 138.771 26.7376C138.747 27 138.714 27.1926 138.714 27.3852C138.714 31.0223 138.721 34.6595 138.713 38.2966C138.712 38.5312 138.6 38.7654 138.54 39H133.684Z" fill="#B71C1C"/>
<mask id="mask0" mask-type="alpha" maskUnits="userSpaceOnUse" x="0" y="0" width="39" height="28">
<path d="M0 0.192225H38.7838V27.8731H0V0.192225Z" fill="white"/>
</mask>
<g mask="url(#mask0)">
<path fill-rule="evenodd" clip-rule="evenodd" d="M38.7784 27.8731H0.00339556V27.5406C0.00339556 21.2833 0.00456556 15.0265 -0.000114441 8.76968C-0.000114441 8.5694 0.0615056 8.4434 0.222576 8.32246C3.74584 5.67762 7.2652 3.02734 10.7849 0.377844C10.8583 0.322622 10.9242 0.257677 11.0006 0.208289C11.0306 0.188844 11.0841 0.188066 11.1192 0.200511C11.1531 0.212566 11.1773 0.251844 11.205 0.279455C12.7759 1.8459 14.3492 3.41001 15.917 4.97957C17.0448 6.1089 18.1653 7.24562 19.2893 8.37962C19.3061 8.39634 19.3205 8.4154 19.3248 8.45118C19.2058 8.39984 19.0865 8.34968 18.9683 8.29718C17.6025 7.6909 16.2375 7.08229 14.8706 6.47757C12.8172 5.56951 10.7623 4.66496 8.70976 3.75418C8.599 3.70518 8.56546 3.75884 8.51554 3.83079C6.83659 6.23996 5.15647 8.64834 3.47674 11.0571C3.24703 11.3865 3.0181 11.7167 2.78839 12.0476C3.14173 12.5073 3.49078 12.9611 3.83944 13.415C4.38505 14.1255 4.93261 14.8352 5.47666 15.5472C7.30381 17.9408 9.13018 20.3352 10.9534 22.7316C11.0299 22.8315 11.0915 22.8459 11.2034 22.7953C12.2857 22.3034 13.3703 21.8165 14.4537 21.3277C16.509 20.4006 18.5643 19.4727 20.6196 18.5452C20.6714 18.5218 20.7233 18.4981 20.7732 18.4713C20.8661 18.4219 20.9511 18.4277 21.0462 18.4779C23.4108 19.7293 25.7769 20.9781 28.1423 22.2272C31.6519 24.0814 35.1611 25.9352 38.6703 27.7891C38.7086 27.8089 38.746 27.8299 38.7838 27.8505C38.7819 27.8579 38.7803 27.8657 38.7784 27.8731Z" fill="#B71C1C"/>
</g>
<path d="M142.696 39V33H144.376L144.52 33.732H144.568C144.808 33.5 145.064 33.296 145.336 33.12C145.616 32.944 145.96 32.856 146.368 32.856C146.776 32.856 147.112 32.94 147.376 33.108C147.648 33.268 147.864 33.504 148.024 33.816C148.272 33.56 148.54 33.336 148.828 33.144C149.116 32.952 149.464 32.856 149.872 32.856C150.528 32.856 151.008 33.08 151.312 33.528C151.616 33.968 151.768 34.56 151.768 35.304V39H149.704V35.568C149.704 35.184 149.656 34.928 149.56 34.8C149.464 34.672 149.312 34.608 149.104 34.608C148.848 34.608 148.568 34.76 148.264 35.064V39H146.2V35.568C146.2 35.184 146.152 34.928 146.056 34.8C145.96 34.672 145.808 34.608 145.6 34.608C145.344 34.608 145.064 34.76 144.76 35.064V39H142.696ZM155.898 39.144C155.458 39.144 155.05 39.076 154.674 38.94C154.298 38.796 153.97 38.592 153.69 38.328C153.418 38.056 153.202 37.724 153.042 37.332C152.882 36.94 152.802 36.496 152.802 36C152.802 35.512 152.882 35.076 153.042 34.692C153.21 34.3 153.426 33.968 153.69 33.696C153.962 33.424 154.27 33.216 154.614 33.072C154.958 32.928 155.314 32.856 155.682 32.856C156.122 32.856 156.506 32.932 156.834 33.084C157.162 33.236 157.434 33.444 157.65 33.708C157.866 33.972 158.026 34.28 158.13 34.632C158.242 34.984 158.298 35.36 158.298 35.76C158.298 35.944 158.286 36.116 158.262 36.276C158.246 36.436 158.23 36.552 158.214 36.624H154.794C154.89 36.984 155.062 37.236 155.31 37.38C155.558 37.516 155.85 37.584 156.186 37.584C156.394 37.584 156.594 37.556 156.786 37.5C156.986 37.436 157.194 37.344 157.41 37.224L158.082 38.448C157.754 38.68 157.39 38.856 156.99 38.976C156.598 39.088 156.234 39.144 155.898 39.144ZM154.77 35.28H156.546C156.546 35.048 156.486 34.848 156.366 34.68C156.254 34.504 156.042 34.416 155.73 34.416C155.498 34.416 155.294 34.484 155.118 34.62C154.95 34.756 154.834 34.976 154.77 35.28ZM159.43 39V33H161.11L161.254 33.732H161.302C161.542 33.5 161.798 33.296 162.07 33.12C162.35 32.944 162.694 32.856 163.102 32.856C163.51 32.856 163.846 32.94 164.11 33.108C164.382 33.268 164.598 33.504 164.758 33.816C165.006 33.56 165.274 33.336 165.562 33.144C165.85 32.952 166.198 32.856 166.606 32.856C167.262 32.856 167.742 33.08 168.046 33.528C168.35 33.968 168.502 34.56 168.502 35.304V39H166.438V35.568C166.438 35.184 166.39 34.928 166.294 34.8C166.198 34.672 166.046 34.608 165.838 34.608C165.582 34.608 165.302 34.76 164.998 35.064V39H162.934V35.568C162.934 35.184 162.886 34.928 162.79 34.8C162.694 34.672 162.542 34.608 162.334 34.608C162.078 34.608 161.798 34.76 161.494 35.064V39H159.43ZM173.184 39.144C172.92 39.144 172.66 39.08 172.404 38.952C172.148 38.816 171.904 38.616 171.672 38.352H171.624L171.456 39H169.848V30.648H171.912V32.592L171.864 33.456C172.072 33.264 172.304 33.116 172.56 33.012C172.816 32.908 173.076 32.856 173.34 32.856C173.692 32.856 174.012 32.928 174.3 33.072C174.588 33.216 174.832 33.42 175.032 33.684C175.24 33.948 175.4 34.268 175.512 34.644C175.624 35.02 175.68 35.436 175.68 35.892C175.68 36.412 175.608 36.876 175.464 37.284C175.328 37.684 175.144 38.024 174.912 38.304C174.68 38.576 174.412 38.784 174.108 38.928C173.812 39.072 173.504 39.144 173.184 39.144ZM172.68 37.464C172.92 37.464 173.128 37.352 173.304 37.128C173.48 36.904 173.568 36.504 173.568 35.928C173.568 35.432 173.496 35.076 173.352 34.86C173.216 34.644 173.008 34.536 172.728 34.536C172.568 34.536 172.424 34.568 172.296 34.632C172.176 34.696 172.048 34.808 171.912 34.968V37.176C172.032 37.288 172.156 37.364 172.284 37.404C172.412 37.444 172.544 37.464 172.68 37.464ZM179.593 39.144C179.153 39.144 178.745 39.076 178.369 38.94C177.993 38.796 177.665 38.592 177.385 38.328C177.113 38.056 176.897 37.724 176.737 37.332C176.577 36.94 176.497 36.496 176.497 36C176.497 35.512 176.577 35.076 176.737 34.692C176.905 34.3 177.121 33.968 177.385 33.696C177.657 33.424 177.965 33.216 178.309 33.072C178.653 32.928 179.009 32.856 179.377 32.856C179.817 32.856 180.201 32.932 180.529 33.084C180.857 33.236 181.129 33.444 181.345 33.708C181.561 33.972 181.721 34.28 181.825 34.632C181.937 34.984 181.993 35.36 181.993 35.76C181.993 35.944 181.981 36.116 181.957 36.276C181.941 36.436 181.925 36.552 181.909 36.624H178.489C178.585 36.984 178.757 37.236 179.005 37.38C179.253 37.516 179.545 37.584 179.881 37.584C180.089 37.584 180.289 37.556 180.481 37.5C180.681 37.436 180.889 37.344 181.105 37.224L181.777 38.448C181.449 38.68 181.085 38.856 180.685 38.976C180.293 39.088 179.929 39.144 179.593 39.144ZM178.465 35.28H180.241C180.241 35.048 180.181 34.848 180.061 34.68C179.949 34.504 179.737 34.416 179.425 34.416C179.193 34.416 178.989 34.484 178.813 34.62C178.645 34.756 178.529 34.976 178.465 35.28ZM183.126 39V33H184.806L184.95 34.032H184.998C185.222 33.624 185.486 33.328 185.79 33.144C186.102 32.952 186.406 32.856 186.702 32.856C186.886 32.856 187.034 32.868 187.146 32.892C187.258 32.908 187.358 32.936 187.446 32.976L187.11 34.752C186.998 34.728 186.89 34.708 186.786 34.692C186.69 34.668 186.574 34.656 186.438 34.656C186.222 34.656 185.994 34.732 185.754 34.884C185.522 35.028 185.334 35.288 185.19 35.664V39H183.126ZM189.872 39.144C189.488 39.144 189.08 39.068 188.648 38.916C188.224 38.764 187.856 38.56 187.544 38.304L188.456 37.032C189 37.432 189.488 37.632 189.92 37.632C190.136 37.632 190.288 37.604 190.376 37.548C190.472 37.484 190.52 37.392 190.52 37.272C190.52 37.192 190.488 37.124 190.424 37.068C190.36 37.004 190.272 36.948 190.16 36.9C190.056 36.844 189.936 36.792 189.8 36.744C189.664 36.696 189.52 36.64 189.368 36.576C189.192 36.504 189.012 36.42 188.828 36.324C188.652 36.22 188.492 36.096 188.348 35.952C188.204 35.808 188.084 35.644 187.988 35.46C187.9 35.268 187.856 35.048 187.856 34.8C187.856 34.504 187.912 34.236 188.024 33.996C188.144 33.756 188.308 33.552 188.516 33.384C188.724 33.216 188.972 33.088 189.26 33C189.556 32.904 189.88 32.856 190.232 32.856C190.728 32.856 191.152 32.94 191.504 33.108C191.864 33.268 192.176 33.448 192.44 33.648L191.528 34.872C191.312 34.712 191.1 34.588 190.892 34.5C190.684 34.412 190.488 34.368 190.304 34.368C189.952 34.368 189.776 34.48 189.776 34.704C189.776 34.784 189.804 34.852 189.86 34.908C189.924 34.964 190.008 35.016 190.112 35.064C190.216 35.112 190.336 35.16 190.472 35.208C190.608 35.248 190.752 35.296 190.904 35.352C191.08 35.416 191.26 35.496 191.444 35.592C191.628 35.688 191.792 35.808 191.936 35.952C192.088 36.088 192.208 36.256 192.296 36.456C192.392 36.648 192.44 36.88 192.44 37.152C192.44 37.432 192.384 37.696 192.272 37.944C192.16 38.184 191.996 38.396 191.78 38.58C191.564 38.756 191.296 38.896 190.976 39C190.656 39.096 190.288 39.144 189.872 39.144Z" fill="#B71C1C"/>
</svg>
